<svg width="20" height="20" viewBox="0 0 20 20" fill="none" xmlns="http://www.w3.org/2000/svg">
<path d="M10 20C15.5228 20 20 15.5228 20 10C20 4.47715 15.5228 0 10 0C4.47715 0 0 4.47715 0 10C0 15.5228 4.47715 20 10 20Z" fill="#F0F0F0"/>
<path d="M10.8452 13.8012C9.37738 13.8012 8.10837 12.9708 7.47679 11.7544H10.8452V10.5848H7.09083C7.06159 10.3918 7.04404 10.1988 7.04404 10C7.04404 9.80117 7.06159 9.60818 7.09083 9.4152H10.8452V8.24561H7.47679C8.10837 7.02924 9.38322 6.19883 10.8452 6.19883C11.7867 6.19883 12.6522 6.54386 13.3189 7.11696L14.354 6.08187C13.4242 5.24561 12.1902 4.73684 10.8452 4.73684C8.55281 4.73684 6.61129 6.20468 5.88615 8.24561H3.82767V9.4152H5.61714C5.59375 9.60818 5.58205 9.80117 5.58205 10C5.58205 10.1988 5.59375 10.3918 5.61714 10.5848H3.82767V11.7544H5.88615C6.61129 13.7953 8.55281 15.2632 10.8452 15.2632C12.1961 15.2632 13.4242 14.7544 14.354 13.9181L13.313 12.883C12.6522 13.4561 11.7926 13.8012 10.8452 13.8012Z" fill="black"/>
</svg>
