<svg width="50" height="50" viewBox="0 0 50 50" fill="none" xmlns="http://www.w3.org/2000/svg">
<g filter="url(#filter0_d)">
<rect x="10" y="10" width="30" height="30" rx="8" fill="white"/>
<path d="M32.6448 23.6079L30.8095 23.1566C30.6992 22.8087 30.5573 22.4713 30.3861 22.1486C30.6616 21.6899 31.2407 20.7245 31.2407 20.7245C31.3515 20.54 31.3222 20.3038 31.1702 20.1518L29.8445 18.8262C29.6926 18.6737 29.4568 18.6444 29.2719 18.7557L27.8455 19.6103C27.5246 19.4405 27.189 19.2999 26.8434 19.1905L26.3921 17.3553C26.3399 17.1465 26.1527 17 25.9375 17H24.0625C23.8473 17 23.6597 17.1465 23.6079 17.3552C23.6079 17.3552 23.2953 18.6362 23.157 19.1901C22.7885 19.3068 22.4324 19.4583 22.0932 19.6432L20.6142 18.7557C20.4292 18.6458 20.1939 18.6742 20.0415 18.8262L18.7158 20.1518C18.5638 20.3038 18.5345 20.54 18.6453 20.7245L19.5599 22.2521C19.4125 22.5427 19.2889 22.8453 19.1905 23.1552L17.3553 23.6079C17.1465 23.6601 17 23.8473 17 24.0625V25.9375C17 26.1527 17.1465 26.3403 17.3552 26.3921L19.191 26.8434C19.3022 27.1963 19.4468 27.5392 19.6222 27.8683L18.8037 29.2325C18.6929 29.4169 18.7222 29.6532 18.8742 29.8051L20.1999 31.1308C20.3514 31.2823 20.5876 31.3112 20.7726 31.2013C20.7726 31.2013 21.6904 30.6511 22.1399 30.3819C22.4654 30.5554 22.8059 30.6987 23.1571 30.8099L23.608 32.6447C23.6597 32.8535 23.8473 33 24.0625 33H25.9375C26.1527 33 26.3399 32.8535 26.3921 32.6448L26.843 30.8099C27.2042 30.6955 27.552 30.5476 27.883 30.3682C28.3449 30.6451 29.2718 31.2013 29.2718 31.2013C29.4563 31.3116 29.6925 31.2832 29.8445 31.1308L31.1702 29.8051C31.3222 29.6532 31.3515 29.4169 31.2407 29.2325L30.3979 27.8285C30.5641 27.5131 30.7019 27.1831 30.8095 26.8434L32.6447 26.3921C32.8535 26.3399 33 26.1527 33 25.9375V24.0625C33 23.8473 32.8535 23.6601 32.6448 23.6079ZM25 28.2812C23.1909 28.2812 21.7188 26.8091 21.7188 25C21.7188 23.1909 23.1909 21.7188 25 21.7188C26.8091 21.7188 28.2812 23.1909 28.2812 25C28.2812 26.8091 26.8091 28.2812 25 28.2812Z" fill="#172B49"/>
</g>
<defs>
<filter id="filter0_d" x="0" y="0" width="50" height="50" filterUnits="userSpaceOnUse" color-interpolation-filters="sRGB">
<feFlood flood-opacity="0" result="BackgroundImageFix"/>
<feColorMatrix in="SourceAlpha" type="matrix" values="0 0 0 0 0 0 0 0 0 0 0 0 0 0 0 0 0 0 127 0"/>
<feOffset/>
<feGaussianBlur stdDeviation="5"/>
<feColorMatrix type="matrix" values="0 0 0 0 0 0 0 0 0 0 0 0 0 0 0 0 0 0 0.15 0"/>
<feBlend mode="normal" in2="BackgroundImageFix" result="effect1_dropShadow"/>
<feBlend mode="normal" in="SourceGraphic" in2="effect1_dropShadow" result="shape"/>
</filter>
</defs>
</svg>
